<svg width="200" height="200" viewBox="0 0 200 200" fill="none" xmlns="http://www.w3.org/2000/svg">
<rect width="200" height="200" rx="100" fill="black"/>
<circle cx="100" cy="100" r="80" fill="white"/>
<circle cx="100" cy="100" r="70" fill="black"/>
<path d="M160 100C160 133.137 133.137 160 100 160C66.8629 160 40 133.137 40 100C40 66.8629 66.8629 40 100 40C133.137 40 160 66.8629 160 100ZM70 100C70 116.569 83.4315 130 100 130C116.569 130 130 116.569 130 100C130 83.4315 116.569 70 100 70C83.4315 70 70 83.4315 70 100Z" fill="white"/>
</svg>
